<svg width="14" height="14" viewBox="0 0 14 14" fill="none" xmlns="http://www.w3.org/2000/svg">
<path d="M0.812516 0.812501C1.04693 0.578162 1.36481 0.446518 1.69627 0.446518C2.02772 0.446518 2.34561 0.578162 2.58002 0.812501L7.00002 5.2325L11.42 0.812501C11.6558 0.584803 11.9715 0.45881 12.2993 0.461658C12.627 0.464506 12.9405 0.595968 13.1723 0.827728C13.404 1.05949 13.5355 1.373 13.5384 1.70075C13.5412 2.0285 13.4152 2.34425 13.1875 2.58L8.76752 7L13.1875 11.42C13.4152 11.6558 13.5412 11.9715 13.5384 12.2993C13.5355 12.627 13.404 12.9405 13.1723 13.1723C12.9405 13.404 12.627 13.5355 12.2993 13.5383C11.9715 13.5412 11.6558 13.4152 11.42 13.1875L7.00002 8.7675L2.58002 13.1875C2.34426 13.4152 2.02851 13.5412 1.70076 13.5383C1.37302 13.5355 1.0595 13.404 0.827743 13.1723C0.595983 12.9405 0.464522 12.627 0.461674 12.2993C0.458826 11.9715 0.584819 11.6558 0.812516 11.42L5.23252 7L0.812516 2.58C0.578177 2.34559 0.446533 2.02771 0.446533 1.69625C0.446533 1.3648 0.578177 1.04691 0.812516 0.812501Z" fill="black"/>
</svg>
