<svg width="30" height="30" viewBox="0 0 30 30" fill="none" xmlns="http://www.w3.org/2000/svg">
<path d="M25.7667 13.7813C25.7579 12.9902 25.7549 12.1934 25.752 11.3994H23.3848C23.376 12.1904 23.3702 12.9844 23.3643 13.7813C22.5674 13.7842 21.7764 13.79 20.9854 13.7988V16.1689C21.7764 16.1777 22.5733 16.1836 23.3643 16.1924C23.3731 16.9834 23.3731 17.7773 23.379 18.5684H25.7491C25.752 17.7773 25.7579 16.9834 25.7637 16.1865C26.5606 16.1777 27.3516 16.1748 28.1426 16.166V13.7959C27.3545 13.79 26.5577 13.79 25.7667 13.7813ZM10.2393 13.793C10.2364 14.7393 10.2393 15.6885 10.2422 16.6348C11.8301 16.6875 13.4209 16.6641 15.0088 16.6875C14.3086 20.2119 9.5186 21.3545 6.98442 19.0518C4.377 17.0332 4.50005 12.6064 7.21001 10.7314C9.10552 9.21973 11.7979 9.5918 13.6934 10.9014C14.4376 10.2129 15.1348 9.47461 15.8057 8.71289C14.2295 7.45606 12.2959 6.55957 10.2393 6.65332C5.94439 6.50977 1.9981 10.2715 1.92778 14.5693C1.65239 18.082 3.96099 21.5244 7.2188 22.7666C10.4649 24.0176 14.628 23.165 16.7022 20.2471C18.0704 18.4043 18.3663 16.0313 18.2051 13.8018C15.5479 13.7813 12.8936 13.7842 10.2393 13.793Z" fill="white"/>
</svg>
